<mxfile host="65bd71144e">
    <diagram id="Q-62GZFWC4iiTSn5vscz" name="Page-1">
        <mxGraphModel dx="658" dy="688" grid="0" gridSize="10" guides="1" tooltips="1" connect="1" arrows="1" fold="1" page="0" pageScale="1" pageWidth="850" pageHeight="1100" background="#ffffff" math="0" shadow="0">
            <root>
                <mxCell id="0"/>
                <mxCell id="1" parent="0"/>
                <mxCell id="2" value="UPnP Vendor" style="rounded=0;whiteSpace=wrap;html=1;fillColor=none;strokeColor=#999999;strokeWidth=5;fontColor=#000000;fontStyle=1;fontSize=18;" vertex="1" parent="1">
                    <mxGeometry x="120" y="120" width="440" height="40" as="geometry"/>
                </mxCell>
                <mxCell id="4" value="UPnP Forum" style="rounded=0;whiteSpace=wrap;html=1;fillColor=none;strokeColor=#999999;strokeWidth=5;fontColor=#000000;fontStyle=1;fontSize=18;" vertex="1" parent="1">
                    <mxGeometry x="120" y="160" width="440" height="40" as="geometry"/>
                </mxCell>
                <mxCell id="5" value="UPnP Device Architecture" style="rounded=0;whiteSpace=wrap;html=1;fillColor=none;strokeColor=#999999;strokeWidth=5;fontColor=#000000;fontStyle=1;fontSize=18;" vertex="1" parent="1">
                    <mxGeometry x="120" y="200" width="440" height="40" as="geometry"/>
                </mxCell>
                <mxCell id="6" value="SSDP" style="rounded=0;whiteSpace=wrap;html=1;fillColor=none;strokeColor=#999999;strokeWidth=5;fontColor=#000000;fontStyle=1;fontSize=18;" vertex="1" parent="1">
                    <mxGeometry x="120" y="240" width="80" height="80" as="geometry"/>
                </mxCell>
                <mxCell id="7" value="Multicast events" style="rounded=0;whiteSpace=wrap;html=1;fillColor=none;strokeColor=#999999;strokeWidth=5;fontColor=#000000;fontStyle=1;fontSize=18;" vertex="1" parent="1">
                    <mxGeometry x="200" y="240" width="160" height="80" as="geometry"/>
                </mxCell>
                <mxCell id="8" value="SOAP" style="rounded=0;whiteSpace=wrap;html=1;fillColor=none;strokeColor=#999999;strokeWidth=5;fontColor=#000000;fontStyle=1;fontSize=18;" vertex="1" parent="1">
                    <mxGeometry x="360" y="240" width="100" height="40" as="geometry"/>
                </mxCell>
                <mxCell id="9" value="GENA" style="rounded=0;whiteSpace=wrap;html=1;fillColor=none;strokeColor=#999999;strokeWidth=5;fontColor=#000000;fontStyle=1;fontSize=18;" vertex="1" parent="1">
                    <mxGeometry x="460" y="240" width="100" height="40" as="geometry"/>
                </mxCell>
                <mxCell id="10" value="HTTP" style="rounded=0;whiteSpace=wrap;html=1;fillColor=none;strokeColor=#999999;strokeWidth=5;fontColor=#000000;fontStyle=1;fontSize=18;" vertex="1" parent="1">
                    <mxGeometry x="360" y="280" width="100" height="40" as="geometry"/>
                </mxCell>
                <mxCell id="11" value="HTTP" style="rounded=0;whiteSpace=wrap;html=1;fillColor=none;strokeColor=#999999;strokeWidth=5;fontColor=#000000;fontStyle=1;fontSize=18;" vertex="1" parent="1">
                    <mxGeometry x="460" y="280" width="100" height="40" as="geometry"/>
                </mxCell>
                <mxCell id="12" value="UDP" style="rounded=0;whiteSpace=wrap;html=1;fillColor=none;strokeColor=#999999;strokeWidth=5;fontColor=#000000;fontStyle=1;fontSize=18;" vertex="1" parent="1">
                    <mxGeometry x="120" y="320" width="240" height="40" as="geometry"/>
                </mxCell>
                <mxCell id="13" value="TCP" style="rounded=0;whiteSpace=wrap;html=1;fillColor=none;strokeColor=#999999;strokeWidth=5;fontColor=#000000;fontStyle=1;fontSize=18;" vertex="1" parent="1">
                    <mxGeometry x="360" y="320" width="200" height="40" as="geometry"/>
                </mxCell>
                <mxCell id="14" value="IP" style="rounded=0;whiteSpace=wrap;html=1;fillColor=none;strokeColor=#999999;strokeWidth=5;fontColor=#000000;fontStyle=1;fontSize=18;" vertex="1" parent="1">
                    <mxGeometry x="120" y="360" width="440" height="40" as="geometry"/>
                </mxCell>
            </root>
        </mxGraphModel>
    </diagram>
</mxfile>